<svg xmlns="http://www.w3.org/2000/svg" width="1200" height="1200" viewBox="0 0 1200 1200"><rect width="100%" height="100%" fill="#DDDDDD"/><path fill="#999999" d="M260.35 632.025h16.59q4.58 0 7.69-1.1 3.11-1.1 4.97-2.93 1.86-1.83 2.68-4.27.83-2.44.83-5.18 0-2.87-.92-5.16-.91-2.28-2.86-3.9-1.96-1.62-5.04-2.47-3.08-.85-7.41-.85h-16.53v25.86Zm13.97-62.71h-13.97v25.5h13.05q8.42 0 12.72-3.05 4.3-3.05 4.3-9.7 0-6.89-3.9-9.82-3.9-2.93-12.2-2.93Zm-30.38-12.69h30.38q8.66 0 14.82 1.65t10.1 4.7q3.93 3.05 5.76 7.38 1.83 4.33 1.83 9.76 0 3.11-.91 5.95-.92 2.83-2.84 5.3-1.92 2.47-4.88 4.49-2.96 2.01-7.04 3.41 18.17 4.09 18.17 19.64 0 5.62-2.13 10.38-2.14 4.75-6.22 8.2-4.09 3.45-10.07 5.4-5.98 1.95-13.66 1.95h-33.31v-88.21Zm78.14-2.44h15.07v90.65h-15.07v-90.65Zm63.2 74.49v-10.56q-6.53.31-10.98 1.13-4.45.82-7.14 2.11-2.68 1.28-3.84 2.98-1.16 1.71-1.16 3.73 0 3.96 2.35 5.67t6.13 1.71q4.63 0 8.02-1.68 3.39-1.68 6.62-5.09Zm-31.84-32.88-2.69-4.82q10.8-9.88 25.99-9.88 5.49 0 9.82 1.79 4.33 1.8 7.32 5.01 2.99 3.2 4.54 7.65 1.56 4.45 1.56 9.76v39.53h-6.83q-2.14 0-3.3-.64-1.16-.64-1.83-2.59l-1.34-4.52q-2.38 2.14-4.63 3.75-2.26 1.62-4.7 2.72-2.44 1.1-5.22 1.68-2.77.58-6.13.58-3.96 0-7.32-1.07-3.35-1.07-5.79-3.2-2.44-2.14-3.78-5.31-1.35-3.17-1.35-7.38 0-2.38.8-4.73.79-2.35 2.59-4.48 1.8-2.14 4.67-4.03 2.86-1.89 7.04-3.29 4.18-1.41 9.73-2.29 5.55-.89 12.69-1.07v-3.66q0-6.28-2.69-9.3-2.68-3.02-7.74-3.02-3.66 0-6.07.85-2.41.86-4.24 1.93-1.83 1.06-3.33 1.92-1.49.85-3.32.85-1.59 0-2.68-.82-1.1-.83-1.77-1.92Zm109.49-5.8-3.96 5.49q-.67.86-1.31 1.34-.65.49-1.87.49-1.15 0-2.25-.7t-2.63-1.59q-1.52-.88-3.62-1.58-2.11-.7-5.22-.7-3.97 0-6.95 1.43-2.99 1.43-4.98 4.12-1.98 2.68-2.95 6.49-.98 3.82-.98 8.64 0 5 1.07 8.9 1.06 3.9 3.08 6.56 2.01 2.65 4.88 4.02 2.86 1.38 6.46 1.38t5.83-.89q2.23-.88 3.75-1.95 1.53-1.07 2.65-1.95 1.13-.89 2.54-.89 1.83 0 2.74 1.41l4.33 5.49q-2.5 2.92-5.43 4.91-2.93 1.98-6.07 3.17t-6.46 1.68q-3.33.49-6.62.49-5.8 0-10.92-2.17t-8.97-6.31q-3.84-4.15-6.07-10.16-2.22-6.01-2.22-13.69 0-6.9 1.98-12.78 1.98-5.89 5.82-10.19 3.85-4.3 9.52-6.74 5.67-2.44 13.05-2.44 7.02 0 12.3 2.26 5.27 2.25 9.48 6.46Zm10.01-35.81H488v51.92h2.81q1.52 0 2.41-.4.88-.4 1.8-1.62l15.55-19.21q.98-1.28 2.17-1.95 1.19-.68 3.08-.68h13.78l-19.45 23.25q-2.08 2.74-4.52 4.2 1.28.92 2.29 2.14 1.01 1.22 1.92 2.62l20.86 30.38h-13.6q-1.77 0-3.05-.58-1.28-.58-2.14-2.1l-15.98-23.73q-.85-1.41-1.77-1.83-.91-.43-2.74-.43H488v28.67h-15.06v-90.65Zm155.12 2.44h16.47v88.21h-16.47v-38.55h-41.42v38.55h-16.47v-88.21h16.47v37.95h41.42v-37.95Zm61.43 24.65q6.95 0 12.65 2.26 5.71 2.25 9.76 6.4 4.06 4.15 6.26 10.13 2.19 5.97 2.19 13.36 0 7.44-2.19 13.41-2.2 5.98-6.26 10.19-4.05 4.21-9.76 6.47-5.7 2.26-12.65 2.26-7.02 0-12.75-2.26-5.74-2.26-9.79-6.47-4.06-4.21-6.29-10.19-2.22-5.97-2.22-13.41 0-7.39 2.22-13.36 2.23-5.98 6.29-10.13 4.05-4.15 9.79-6.4 5.73-2.26 12.75-2.26Zm0 52.89q7.8 0 11.56-5.25 3.75-5.25 3.75-15.37 0-10.13-3.75-15.44-3.76-5.3-11.56-5.3-7.93 0-11.75 5.33-3.81 5.34-3.81 15.41 0 10.06 3.81 15.34 3.82 5.28 11.75 5.28Zm70.08-52.89q6.96 0 12.66 2.26 5.71 2.25 9.76 6.4 4.06 4.15 6.25 10.13 2.2 5.97 2.2 13.36 0 7.44-2.2 13.41-2.19 5.98-6.25 10.19-4.05 4.21-9.76 6.47-5.7 2.26-12.66 2.26-7.01 0-12.74-2.26-5.74-2.26-9.79-6.47-4.06-4.21-6.29-10.19-2.22-5.97-2.22-13.41 0-7.39 2.22-13.36 2.23-5.98 6.29-10.13 4.05-4.15 9.79-6.4 5.73-2.26 12.74-2.26Zm0 52.89q7.81 0 11.56-5.25 3.76-5.25 3.76-15.37 0-10.13-3.76-15.44-3.75-5.3-11.56-5.3-7.93 0-11.74 5.33-3.81 5.34-3.81 15.41 0 10.06 3.81 15.34 3.81 5.28 11.74 5.28Zm81.68-7.87v-28.06q-2.56-3.11-5.58-4.4-3.02-1.28-6.49-1.28-3.42 0-6.17 1.28-2.74 1.29-4.69 3.88-1.95 2.59-2.99 6.59-1.04 3.99-1.04 9.42 0 5.49.89 9.3.88 3.81 2.53 6.22 1.64 2.41 4.02 3.48 2.38 1.07 5.31 1.07 4.7 0 7.99-1.95 3.3-1.96 6.22-5.55Zm0-72.11h15.07v90.65h-9.21q-2.99 0-3.78-2.75l-1.28-6.03q-3.79 4.33-8.7 7.01-4.91 2.69-11.43 2.69-5.13 0-9.4-2.14-4.27-2.13-7.35-6.19-3.08-4.06-4.76-10.04-1.67-5.97-1.67-13.66 0-6.95 1.89-12.93 1.89-5.98 5.43-10.37 3.53-4.39 8.48-6.86 4.94-2.47 11.1-2.47 5.24 0 8.96 1.64 3.73 1.65 6.65 4.46v-33.01Zm30.44 28.06h15.13v62.59h-15.13v-62.59Zm17.2-18.24q0 1.96-.79 3.67-.79 1.7-2.1 2.98-1.31 1.29-3.08 2.05-1.77.76-3.79.76-1.95 0-3.69-.76-1.73-.76-3.02-2.05-1.28-1.28-2.04-2.98-.76-1.71-.76-3.67 0-2.01.76-3.78t2.04-3.05q1.29-1.28 3.02-2.04 1.74-.76 3.69-.76 2.02 0 3.79.76t3.08 2.04q1.31 1.28 2.1 3.05.79 1.77.79 3.78Zm25.2 42.34h28.42q0-2.93-.82-5.52-.82-2.59-2.47-4.55-1.65-1.95-4.18-3.08-2.53-1.13-5.89-1.13-6.52 0-10.27 3.73-3.76 3.72-4.79 10.55Zm38.43 9.09h-38.74q.37 4.82 1.71 8.32 1.34 3.51 3.54 5.8 2.19 2.29 5.21 3.42 3.02 1.12 6.68 1.12 3.66 0 6.32-.85 2.65-.85 4.63-1.89 1.99-1.04 3.48-1.89 1.49-.86 2.9-.86 1.89 0 2.8 1.41l4.33 5.49q-2.5 2.92-5.61 4.91-3.11 1.98-6.49 3.17-3.39 1.19-6.9 1.68-3.5.49-6.8.49-6.53 0-12.14-2.17t-9.76-6.41q-4.15-4.23-6.52-10.49-2.38-6.25-2.38-14.48 0-6.41 2.07-12.05 2.07-5.64 5.95-9.82 3.87-4.18 9.45-6.62 5.58-2.44 12.6-2.44 5.92 0 10.92 1.89t8.6 5.52q3.6 3.63 5.64 8.91 2.05 5.27 2.05 12.04 0 3.42-.74 4.61-.73 1.19-2.8 1.19Z"/></svg>