<svg xmlns="http://www.w3.org/2000/svg" width="1200" height="1200" viewBox="0 0 1200 1200"><rect width="100%" height="100%" fill="#DDDDDD"/><path fill="#999999" d="M267.905 640.16h20.81q5.74 0 9.64-1.37 3.9-1.38 6.24-3.67 2.33-2.3 3.36-5.36 1.03-3.06 1.03-6.5 0-3.6-1.14-6.47-1.15-2.86-3.6-4.89t-6.31-3.1q-3.86-1.07-9.29-1.07h-20.74v32.43Zm17.52-78.64h-17.52v31.98h16.37q10.56 0 15.95-3.82 5.4-3.83 5.4-12.17 0-8.64-4.9-12.31-4.89-3.68-15.3-3.68Zm-38.09-15.91h38.09q10.87 0 18.59 2.07 7.73 2.06 12.66 5.89 4.94 3.82 7.23 9.25 2.3 5.44 2.3 12.24 0 3.9-1.15 7.46t-3.56 6.66q-2.41 3.1-6.12 5.62t-8.83 4.28q22.79 5.13 22.79 24.64 0 7.04-2.67 13-2.68 5.97-7.81 10.29-5.12 4.32-12.62 6.77-7.5 2.45-17.14 2.45h-41.76V545.61Zm97.99-3.06h18.9v113.68h-18.9V542.55Zm86.52 35.19h18.9v78.49h-11.55q-3.75 0-4.75-3.44l-1.3-6.28q-4.82 4.9-10.63 7.92-5.81 3.02-13.69 3.02-6.43 0-11.36-2.18-4.94-2.18-8.3-6.15-3.37-3.98-5.09-9.45-1.72-5.47-1.72-12.05v-49.88h18.89v49.88q0 7.19 3.33 11.13 3.33 3.94 9.98 3.94 4.9 0 9.18-2.18 4.29-2.18 8.11-6.01v-56.76Zm52.48 30.22h35.65q0-3.67-1.03-6.92-1.03-3.26-3.1-5.7-2.07-2.45-5.24-3.87-3.17-1.41-7.38-1.41-8.19 0-12.89 4.66-4.71 4.67-6.01 13.24Zm48.2 11.4h-48.58q.46 6.04 2.14 10.44 1.68 4.4 4.44 7.27 2.75 2.87 6.54 4.28 3.79 1.42 8.38 1.42 4.59 0 7.91-1.08 3.33-1.07 5.82-2.37 2.48-1.3 4.36-2.37 1.87-1.07 3.63-1.07 2.37 0 3.52 1.76l5.43 6.89q-3.13 3.67-7.04 6.15-3.9 2.49-8.14 3.98-4.25 1.49-8.65 2.11-4.4.61-8.53.61-8.18 0-15.22-2.72-7.04-2.71-12.24-8.03-5.2-5.32-8.19-13.16-2.98-7.84-2.98-18.17 0-8.03 2.6-15.11 2.6-7.07 7.46-12.31 4.86-5.24 11.86-8.3 7-3.06 15.8-3.06 7.42 0 13.69 2.37t10.79 6.92q4.51 4.55 7.07 11.17 2.56 6.62 2.56 15.11 0 4.28-.91 5.78-.92 1.49-3.52 1.49Zm100.9-73.75v71.3q0 9.33-2.29 16.83-2.3 7.5-6.85 12.77-4.55 5.28-11.36 8.11-6.81 2.83-15.84 2.83-4.13 0-8.11-.49-3.97-.5-8.33-1.57.23-3.06.53-6.12.31-3.06.54-6.12.23-1.68 1.34-2.72 1.1-1.03 3.17-1.03 1.3 0 3.4.54 2.11.53 5.32.53 4.36 0 7.73-1.26 3.36-1.26 5.62-4.02 2.26-2.75 3.4-7.15 1.15-4.4 1.15-10.67v-71.76h20.58Zm35.5 62.35h35.65q0-3.67-1.04-6.92-1.03-3.26-3.1-5.7-2.06-2.45-5.24-3.87-3.17-1.41-7.38-1.41-8.18 0-12.89 4.66-4.7 4.67-6 13.24Zm48.19 11.4h-48.58q.46 6.04 2.15 10.44 1.68 4.4 4.43 7.27 2.76 2.87 6.54 4.28 3.79 1.42 8.38 1.42 4.59 0 7.92-1.08 3.33-1.07 5.81-2.37 2.49-1.3 4.36-2.37 1.88-1.07 3.64-1.07 2.37 0 3.52 1.76l5.43 6.89q-3.14 3.67-7.04 6.15-3.9 2.49-8.15 3.98-4.24 1.49-8.64 2.11-4.4.61-8.53.61-8.19 0-15.23-2.72-7.03-2.71-12.24-8.03-5.2-5.32-8.18-13.16-2.98-7.84-2.98-18.17 0-8.03 2.6-15.11 2.6-7.07 7.45-12.31 4.86-5.24 11.86-8.3 7-3.06 15.8-3.06 7.42 0 13.69 2.37 6.28 2.37 10.79 6.92 4.51 4.55 7.08 11.17 2.56 6.62 2.56 15.11 0 4.28-.92 5.78-.92 1.49-3.52 1.49Zm60.05 16.6v-13.24q-8.18.39-13.77 1.42-5.58 1.03-8.95 2.64-3.36 1.6-4.82 3.75-1.45 2.14-1.45 4.66 0 4.97 2.95 7.12 2.94 2.14 7.68 2.14 5.82 0 10.06-2.1 4.25-2.11 8.3-6.39Zm-39.93-41.24-3.36-6.04q13.54-12.39 32.58-12.39 6.89 0 12.32 2.25 5.43 2.26 9.18 6.28 3.75 4.01 5.7 9.6 1.95 5.58 1.95 12.24v49.57h-8.57q-2.67 0-4.13-.8-1.45-.81-2.29-3.25l-1.69-5.67q-2.98 2.68-5.81 4.71-2.83 2.03-5.89 3.4-3.06 1.38-6.54 2.11-3.48.72-7.69.72-4.97 0-9.18-1.33-4.21-1.34-7.27-4.02-3.06-2.68-4.74-6.66-1.68-3.97-1.68-9.25 0-2.99.99-5.93 1-2.95 3.25-5.62 2.26-2.68 5.85-5.05 3.6-2.38 8.84-4.13 5.24-1.76 12.2-2.87 6.96-1.11 15.91-1.34v-4.59q0-7.88-3.36-11.67-3.37-3.79-9.72-3.79-4.59 0-7.61 1.08-3.02 1.07-5.32 2.41-2.29 1.33-4.17 2.41-1.87 1.07-4.16 1.07-1.99 0-3.37-1.04-1.38-1.03-2.22-2.41Zm92.49-13.54 1.3 6.2q2.37-2.37 5.01-4.4 2.64-2.03 5.59-3.44 2.94-1.42 6.31-2.22 3.36-.8 7.34-.8 6.43 0 11.4 2.18 4.97 2.18 8.3 6.12 3.33 3.94 5.05 9.41 1.72 5.47 1.72 12.05v49.95h-18.9v-49.95q0-7.2-3.29-11.14-3.28-3.94-10.02-3.94-4.89 0-9.18 2.22-4.28 2.22-8.11 6.05v56.76h-18.89v-78.49h11.55q3.67 0 4.82 3.44Zm122.09 5.05-4.28 6.81q-.77 1.23-1.61 1.72-.84.5-2.14.5-1.38 0-2.94-.77-1.57-.76-3.64-1.72-2.06-.95-4.7-1.72-2.64-.76-6.24-.76-5.58 0-8.76 2.37-3.17 2.37-3.17 6.19 0 2.53 1.64 4.25 1.65 1.72 4.36 3.02 2.72 1.3 6.16 2.34 3.44 1.03 7 2.25 3.56 1.23 7 2.79 3.44 1.57 6.16 3.98t4.36 5.78q1.65 3.36 1.65 8.11 0 5.66-2.03 10.44-2.03 4.78-6.01 8.26-3.98 3.48-9.83 5.43-5.85 1.95-13.5 1.95-4.05 0-7.92-.72-3.86-.73-7.42-2.03-3.56-1.3-6.58-3.06t-5.31-3.82l4.36-7.2q.84-1.3 1.99-1.98 1.14-.69 2.9-.69t3.33.99q1.57 1 3.63 2.14 2.07 1.15 4.86 2.15 2.79.99 7.08.99 3.36 0 5.77-.8 2.41-.81 3.98-2.11 1.57-1.3 2.3-3.02.72-1.72.72-3.56 0-2.75-1.64-4.51-1.65-1.76-4.36-3.06-2.72-1.3-6.2-2.33-3.48-1.04-7.11-2.26-3.64-1.22-7.12-2.87-3.48-1.64-6.19-4.17-2.72-2.52-4.36-6.19-1.65-3.68-1.65-8.88 0-4.82 1.91-9.18 1.92-4.36 5.63-7.61t9.25-5.2q5.55-1.95 12.82-1.95 8.11 0 14.76 2.67 6.66 2.68 11.09 7.04Z"/></svg>