<svg xmlns="http://www.w3.org/2000/svg" width="1200" height="1200" viewBox="0 0 1200 1200"><rect width="100%" height="100%" fill="#DDDDDD"/><path fill="#999999" d="M288.375 600.605h29.28v35.69q-6.71 4.94-14.3 7.23-7.6 2.29-16.26 2.29-10.79 0-19.55-3.36-8.75-3.35-14.94-9.33-6.19-5.98-9.55-14.28-3.35-8.29-3.35-18.11 0-9.95 3.23-18.24 3.23-8.3 9.18-14.28 5.95-5.97 14.43-9.27 8.47-3.29 19.03-3.29 5.37 0 10.03.85 4.67.86 8.66 2.35 4 1.5 7.29 3.63 3.3 2.13 6.04 4.7l-4.69 7.44q-1.1 1.77-2.87 2.16-1.77.4-3.84-.88-2.02-1.16-4.03-2.32-2.01-1.16-4.48-2.01-2.47-.85-5.56-1.4-3.08-.55-7.1-.55-6.53 0-11.81 2.19-5.27 2.2-8.99 6.29-3.72 4.08-5.74 9.82-2.01 5.73-2.01 12.81 0 7.56 2.17 13.51 2.16 5.95 6.1 10.06 3.93 4.12 9.48 6.29 5.55 2.16 12.38 2.16 4.88 0 8.73-1.04 3.84-1.03 7.5-2.8v-15.98h-11.1q-1.59 0-2.47-.89-.89-.88-.89-2.16v-9.28Zm56.06-14.57.92 7.07q2.93-5.61 6.95-8.81 4.03-3.2 9.52-3.2 4.33 0 6.95 1.89l-.97 11.28q-.31 1.1-.89 1.56-.58.45-1.55.45-.92 0-2.72-.3-1.8-.31-3.51-.31-2.5 0-4.45.74-1.95.73-3.51 2.1-1.55 1.37-2.74 3.32-1.19 1.96-2.23 4.46v38.55h-15.07v-62.59h8.85q2.32 0 3.23.83.92.82 1.22 2.96Zm44.11 20.31h28.42q0-2.93-.82-5.52-.83-2.59-2.47-4.55-1.65-1.95-4.18-3.08-2.53-1.13-5.89-1.13-6.52 0-10.28 3.73-3.75 3.72-4.78 10.55Zm38.43 9.09h-38.74q.37 4.82 1.71 8.32 1.34 3.51 3.54 5.8 2.19 2.29 5.21 3.42 3.02 1.12 6.68 1.12 3.66 0 6.31-.85 2.66-.85 4.64-1.89 1.98-1.04 3.48-1.89 1.49-.86 2.9-.86 1.89 0 2.8 1.41l4.33 5.49q-2.5 2.92-5.61 4.91-3.11 1.98-6.5 3.17-3.38 1.19-6.89 1.68t-6.8.49q-6.53 0-12.14-2.17t-9.76-6.41q-4.15-4.23-6.53-10.49-2.38-6.25-2.38-14.48 0-6.41 2.08-12.05 2.07-5.64 5.95-9.82 3.87-4.18 9.45-6.62 5.58-2.44 12.6-2.44 5.91 0 10.92 1.89 5 1.89 8.6 5.52 3.6 3.63 5.64 8.91 2.04 5.27 2.04 12.04 0 3.42-.73 4.61-.73 1.19-2.8 1.19Zm26.71-9.09h28.43q0-2.93-.82-5.52-.83-2.59-2.47-4.55-1.65-1.95-4.18-3.08-2.53-1.13-5.89-1.13-6.53 0-10.28 3.73-3.75 3.72-4.79 10.55Zm38.43 9.09h-38.73q.36 4.82 1.71 8.32 1.34 3.51 3.53 5.8 2.2 2.29 5.22 3.42 3.02 1.12 6.68 1.12 3.66 0 6.31-.85 2.66-.85 4.64-1.89 1.98-1.04 3.48-1.89 1.49-.86 2.89-.86 1.89 0 2.81 1.41l4.33 5.49q-2.5 2.92-5.61 4.91-3.11 1.98-6.5 3.17-3.38 1.19-6.89 1.68t-6.8.49q-6.53 0-12.14-2.17t-9.76-6.41q-4.15-4.23-6.53-10.49-2.38-6.25-2.38-14.48 0-6.41 2.08-12.05 2.07-5.64 5.94-9.82 3.88-4.18 9.46-6.62 5.58-2.44 12.6-2.44 5.91 0 10.91 1.89 5.01 1.89 8.61 5.52 3.59 3.63 5.64 8.91 2.04 5.27 2.04 12.04 0 3.42-.73 4.61-.73 1.19-2.81 1.19Zm27.88-30.44 1.04 4.94q1.89-1.89 3.99-3.51 2.11-1.61 4.46-2.74 2.34-1.13 5.03-1.77 2.68-.64 5.85-.64 5.13 0 9.09 1.74 3.97 1.73 6.62 4.88 2.66 3.14 4.03 7.5 1.37 4.36 1.37 9.61v39.83h-15.07v-39.83q0-5.74-2.62-8.88-2.62-3.14-7.99-3.14-3.9 0-7.32 1.77-3.42 1.77-6.47 4.82v45.26h-15.06v-62.59h9.21q2.93 0 3.84 2.75Zm149.39-28.37v13.49h-26.6v74.72h-16.41v-74.72h-26.59v-13.49h69.6Zm8.72 57.65v-12.57h31.6v12.57h-31.6Zm87.6-25.25-3.42 5.42q-.61.98-1.28 1.38-.67.39-1.71.39-1.09 0-2.35-.61-1.25-.61-2.89-1.37-1.65-.76-3.75-1.37-2.11-.61-4.98-.61-4.45 0-6.98 1.89-2.53 1.89-2.53 4.94 0 2.01 1.31 3.39 1.31 1.37 3.48 2.41 2.16 1.03 4.91 1.86 2.74.82 5.58 1.79 2.84.98 5.58 2.23 2.75 1.25 4.91 3.17 2.17 1.93 3.48 4.61 1.31 2.68 1.31 6.47 0 4.51-1.62 8.32-1.61 3.81-4.79 6.59-3.17 2.78-7.83 4.33-4.67 1.56-10.77 1.56-3.23 0-6.31-.58-3.08-.58-5.92-1.62t-5.25-2.44q-2.41-1.4-4.24-3.05l3.48-5.73q.67-1.04 1.59-1.59.91-.55 2.31-.55 1.41 0 2.66.79 1.25.8 2.9 1.71 1.64.92 3.87 1.71 2.23.79 5.64.79 2.69 0 4.61-.64 1.92-.64 3.17-1.67 1.25-1.04 1.83-2.41.58-1.38.58-2.84 0-2.2-1.31-3.6t-3.48-2.44q-2.17-1.04-4.94-1.86-2.78-.82-5.67-1.8-2.9-.98-5.68-2.29-2.77-1.31-4.94-3.32-2.16-2.01-3.48-4.94-1.31-2.93-1.31-7.08 0-3.84 1.53-7.32 1.52-3.48 4.48-6.07 2.96-2.59 7.38-4.15 4.43-1.55 10.22-1.55 6.47 0 11.77 2.13 5.31 2.14 8.85 5.62Zm27.08-34.84v34.77q3.66-3.41 8.05-5.55 4.4-2.13 10.31-2.13 5.13 0 9.09 1.74 3.97 1.73 6.62 4.88 2.65 3.14 4.03 7.5 1.37 4.36 1.37 9.61v39.83h-15.07v-39.83q0-5.74-2.62-8.88-2.62-3.14-7.99-3.14-3.91 0-7.32 1.77-3.42 1.77-6.47 4.82v45.26h-15.06v-90.65h15.06Zm54.23 28.06h15.13v62.59h-15.13v-62.59Zm17.2-18.24q0 1.96-.79 3.67-.79 1.7-2.1 2.98-1.32 1.29-3.08 2.05-1.77.76-3.79.76-1.95 0-3.69-.76t-3.02-2.05q-1.28-1.28-2.04-2.98-.76-1.71-.76-3.67 0-2.01.76-3.78t2.04-3.05q1.28-1.28 3.02-2.04t3.69-.76q2.02 0 3.79.76 1.76.76 3.08 2.04 1.31 1.28 2.1 3.05.79 1.77.79 3.78Zm26.6 22.03.91 7.07q2.93-5.61 6.96-8.81 4.02-3.2 9.51-3.2 4.34 0 6.96 1.89l-.98 11.28q-.3 1.1-.88 1.56-.58.45-1.56.45-.91 0-2.71-.3-1.8-.31-3.51-.31-2.5 0-4.45.74-1.95.73-3.51 2.1-1.56 1.37-2.75 3.32-1.18 1.96-2.22 4.46v38.55h-15.07v-62.59h8.85q2.31 0 3.23.83.91.82 1.22 2.96Zm53.07 59.78q-8.17 0-12.54-4.61-4.36-4.6-4.36-12.72v-34.95h-6.4q-1.22 0-2.08-.79-.85-.8-.85-2.38v-5.98l10.06-1.65 3.18-17.08q.3-1.22 1.16-1.89.85-.67 2.19-.67h7.81v19.7h16.71v10.74h-16.71v33.92q0 2.92 1.43 4.57 1.44 1.65 3.94 1.65 1.4 0 2.35-.34.94-.33 1.64-.7.7-.37 1.25-.7.55-.34 1.1-.34.67 0 1.1.34.43.33.91 1.01l4.52 7.31q-3.3 2.75-7.57 4.15-4.27 1.41-8.84 1.41Z"/></svg>