<svg xmlns="http://www.w3.org/2000/svg" width="1200" height="1200" viewBox="0 0 1200 1200"><rect width="100%" height="100%" fill="#DDDDDD"/><path fill="#999999" d="M279.3 592.33h22.8v27.79q-5.22 3.85-11.13 5.63-5.92 1.78-12.66 1.78-8.41 0-15.23-2.61-6.81-2.61-11.63-7.27-4.83-4.66-7.44-11.11-2.61-6.47-2.61-14.11 0-7.75 2.52-14.21 2.51-6.46 7.15-11.11 4.63-4.65 11.23-7.22 6.6-2.57 14.82-2.57 4.18 0 7.81.67 3.64.67 6.75 1.83 3.11 1.16 5.67 2.82 2.57 1.67 4.71 3.66l-3.66 5.8q-.86 1.37-2.23 1.68-1.38.31-3-.68-1.56-.91-3.13-1.81-1.57-.9-3.49-1.57-1.93-.66-4.32-1.09-2.4-.43-5.54-.43-5.08 0-9.19 1.71-4.11 1.71-7.01 4.89-2.89 3.19-4.46 7.65-1.57 4.47-1.57 9.98 0 5.89 1.69 10.52 1.68 4.63 4.75 7.84 3.06 3.2 7.38 4.89 4.33 1.69 9.65 1.69 3.8 0 6.79-.81t5.84-2.19v-12.44h-8.64q-1.24 0-1.93-.69t-.69-1.69v-7.22Zm43.66-11.35.71 5.51q2.28-4.37 5.41-6.86 3.14-2.5 7.41-2.5 3.38 0 5.42 1.48l-.76 8.78q-.24.86-.69 1.21-.45.36-1.21.36-.71 0-2.11-.24t-2.73-.24q-1.95 0-3.47.57-1.52.57-2.73 1.64-1.22 1.07-2.14 2.59-.93 1.52-1.74 3.47v30.02H312.6v-48.73h6.89q1.81 0 2.52.64t.95 2.3Zm34.34 15.82h22.13q0-2.28-.64-4.3t-1.92-3.54q-1.28-1.52-3.25-2.4-1.97-.88-4.59-.88-5.08 0-8 2.9t-3.73 8.22Zm29.93 7.08h-30.17q.29 3.75 1.33 6.48 1.05 2.73 2.76 4.51 1.71 1.78 4.06 2.66 2.35.88 5.2.88t4.92-.67q2.06-.66 3.61-1.47 1.54-.8 2.7-1.47 1.17-.66 2.26-.66 1.47 0 2.18 1.09l3.38 4.27q-1.95 2.28-4.37 3.83-2.42 1.54-5.06 2.47-2.64.92-5.37 1.3t-5.3.38q-5.08 0-9.45-1.68-4.37-1.69-7.6-4.99-3.23-3.3-5.08-8.17t-1.85-11.28q0-4.99 1.61-9.38 1.62-4.4 4.63-7.65 3.02-3.26 7.37-5.15 4.34-1.9 9.81-1.9 4.6 0 8.5 1.47 3.89 1.47 6.69 4.3 2.81 2.82 4.4 6.93 1.59 4.11 1.59 9.38 0 2.66-.57 3.59-.57.93-2.18.93Zm46.4-25.84h9.41l-26.55 62.12q-.53 1.24-1.36 1.88-.83.64-2.54.64h-8.74l9.12-19.57-19.71-45.07h10.31q1.37 0 2.16.66.78.66 1.16 1.52l10.36 25.27q.52 1.28.87 2.57.36 1.28.69 2.61.43-1.33.86-2.64t.95-2.59l9.78-25.22q.38-.95 1.26-1.57.88-.61 1.97-.61Zm79.95-13.5-3.19 6.04q-.57.99-1.21 1.45-.64.45-1.59.45-1 0-2.16-.74-1.16-.74-2.78-1.64-1.61-.9-3.78-1.64-2.16-.73-5.1-.73-2.66 0-4.66.64-1.99.64-3.35 1.78-1.35 1.14-2.01 2.73-.67 1.59-.67 3.49 0 2.42 1.35 4.04 1.36 1.62 3.59 2.75 2.23 1.14 5.08 2.05 2.85.9 5.85 1.92 2.99 1.02 5.84 2.38 2.85 1.35 5.08 3.42 2.23 2.06 3.59 5.05 1.35 3 1.35 7.27 0 4.66-1.59 8.72-1.59 4.06-4.66 7.08-3.06 3.01-7.48 4.75-4.41 1.73-10.11 1.73-3.28 0-6.46-.64-3.19-.64-6.11-1.83-2.92-1.19-5.48-2.85-2.57-1.66-4.56-3.71l3.75-6.12q.47-.67 1.23-1.12.76-.45 1.62-.45 1.19 0 2.56.97 1.38.98 3.28 2.17 1.9 1.18 4.44 2.16 2.54.97 6.11.97 5.46 0 8.45-2.59 2.99-2.59 2.99-7.43 0-2.71-1.35-4.42t-3.59-2.87q-2.23-1.17-5.08-1.98-2.85-.8-5.79-1.75-2.95-.95-5.8-2.28-2.85-1.33-5.08-3.47t-3.59-5.34q-1.35-3.21-1.35-7.91 0-3.75 1.49-7.32 1.5-3.56 4.35-6.32 2.85-2.75 7.03-4.41 4.18-1.67 9.6-1.67 6.08 0 11.21 1.9 5.13 1.91 8.74 5.32Zm71.15 13.5h8.93l-15.48 48.73h-9.41q-1.61 0-2.23-2.09l-8.74-28.17q-.43-1.42-.79-2.82-.35-1.4-.59-2.83-.28 1.43-.64 2.87-.36 1.45-.78 2.88l-8.89 28.07q-.57 2.09-2.51 2.09h-9.03l-15.44-48.73h9.36q1.28 0 2.19.61.9.62 1.18 1.57l6.99 26.03q.52 2.14.92 4.18.41 2.04.69 4.08.52-2.04 1.12-4.08.59-2.04 1.26-4.18l8.07-26.13q.29-.94 1.12-1.56.83-.62 2.02-.62h5.17q1.24 0 2.12.62.88.62 1.16 1.56l7.84 26.13q.62 2.14 1.16 4.2.55 2.07 1.07 4.11.62-4.04 1.76-8.31l7.17-26.03q.33-.95 1.19-1.57.85-.61 2.04-.61Zm24.84 18.76h22.14q0-2.28-.64-4.3t-1.93-3.54q-1.28-1.52-3.25-2.4-1.97-.88-4.58-.88-5.09 0-8.01 2.9t-3.73 8.22Zm29.93 7.08h-30.16q.28 3.75 1.33 6.48 1.04 2.73 2.75 4.51 1.71 1.78 4.06 2.66 2.35.88 5.2.88t4.92-.67q2.07-.66 3.61-1.47 1.54-.8 2.71-1.47 1.16-.66 2.25-.66 1.48 0 2.19 1.09l3.37 4.27q-1.95 2.28-4.37 3.83-2.42 1.54-5.06 2.47-2.63.92-5.37 1.3-2.73.38-5.29.38-5.08 0-9.45-1.68-4.37-1.69-7.6-4.99-3.23-3.3-5.09-8.17-1.85-4.87-1.85-11.28 0-4.99 1.62-9.38 1.61-4.4 4.63-7.65 3.01-3.26 7.36-5.15 4.35-1.9 9.81-1.9 4.61 0 8.5 1.47 3.9 1.47 6.7 4.3 2.8 2.82 4.39 6.93 1.59 4.11 1.59 9.38 0 2.66-.57 3.59-.57.93-2.18.93Zm37.29 10.3v-8.21q-5.09.23-8.55.87-3.47.64-5.56 1.64-2.09 1-2.99 2.33-.91 1.33-.91 2.9 0 3.09 1.83 4.42 1.83 1.32 4.78 1.32 3.61 0 6.24-1.3 2.64-1.31 5.16-3.97Zm-24.8-25.6-2.09-3.75q8.41-7.7 20.24-7.7 4.27 0 7.64 1.4 3.38 1.4 5.7 3.9 2.33 2.49 3.54 5.96 1.21 3.47 1.21 7.6v30.78h-5.32q-1.66 0-2.56-.5-.9-.5-1.43-2.02l-1.04-3.51q-1.85 1.66-3.61 2.92-1.76 1.26-3.66 2.11-1.9.86-4.06 1.31-2.16.45-4.77.45-3.09 0-5.7-.83-2.62-.83-4.52-2.49-1.9-1.67-2.94-4.14-1.05-2.47-1.05-5.75 0-1.85.62-3.68t2.02-3.49q1.4-1.66 3.63-3.13 2.24-1.48 5.49-2.57 3.25-1.09 7.58-1.78 4.32-.69 9.88-.83v-2.85q0-4.89-2.09-7.24-2.09-2.36-6.04-2.36-2.85 0-4.72.67-1.88.66-3.3 1.5-1.43.83-2.59 1.49-1.17.67-2.59.67-1.24 0-2.09-.64-.86-.65-1.38-1.5Zm63.51 38.95q-6.37 0-9.76-3.59-3.4-3.58-3.4-9.9v-27.22h-4.99q-.95 0-1.61-.61-.67-.62-.67-1.86v-4.65l7.84-1.29 2.47-13.3q.24-.95.9-1.47.67-.52 1.71-.52h6.08v15.34h13.02v8.36h-13.02v26.41q0 2.28 1.12 3.57 1.12 1.28 3.06 1.28 1.1 0 1.83-.26.74-.26 1.28-.55.55-.29.98-.55.43-.26.85-.26.53 0 .86.26.33.26.71.79l3.52 5.7q-2.57 2.13-5.89 3.23-3.33 1.09-6.89 1.09Zm30.83-35.24v21.85q1.99 2.42 4.34 3.42 2.35.99 5.11.99 2.66 0 4.8-.99 2.13-1 3.63-3.05 1.5-2.04 2.3-5.15.81-3.11.81-7.34 0-4.27-.69-7.24-.69-2.97-1.97-4.82t-3.11-2.71q-1.83-.86-4.16-.86-3.65 0-6.22 1.55-2.56 1.54-4.84 4.35Zm-1.57-12.12.95 4.51q2.99-3.37 6.79-5.46t8.93-2.09q3.99 0 7.29 1.66 3.3 1.67 5.7 4.83 2.4 3.16 3.71 7.79 1.3 4.63 1.3 10.61 0 5.46-1.47 10.12-1.47 4.66-4.2 8.08-2.73 3.41-6.61 5.34-3.87 1.92-8.66 1.92-4.09 0-6.99-1.26-2.89-1.25-5.17-3.49v19.95h-11.74v-64.64h7.18q2.28 0 2.99 2.13Zm69.54 34.01v-8.21q-5.08.23-8.55.87-3.47.64-5.56 1.64-2.09 1-2.99 2.33-.9 1.33-.9 2.9 0 3.09 1.82 4.42 1.83 1.32 4.78 1.32 3.61 0 6.24-1.3 2.64-1.31 5.16-3.97Zm-24.8-25.6-2.09-3.75q8.41-7.7 20.24-7.7 4.27 0 7.65 1.4 3.37 1.4 5.7 3.9 2.32 2.49 3.53 5.96 1.22 3.47 1.22 7.6v30.78h-5.32q-1.67 0-2.57-.5-.9-.5-1.42-2.02l-1.05-3.51q-1.85 1.66-3.61 2.92-1.76 1.26-3.66 2.11-1.9.86-4.06 1.31-2.16.45-4.77.45-3.09 0-5.7-.83-2.61-.83-4.51-2.49-1.9-1.67-2.95-4.14-1.04-2.47-1.04-5.75 0-1.85.61-3.68.62-1.83 2.02-3.49 1.4-1.66 3.64-3.13 2.23-1.48 5.48-2.57 3.26-1.09 7.58-1.78t9.88-.83v-2.85q0-4.89-2.09-7.24-2.09-2.36-6.03-2.36-2.85 0-4.73.67-1.88.66-3.3 1.5-1.43.83-2.59 1.49-1.16.67-2.59.67-1.23 0-2.09-.64-.85-.65-1.38-1.5Zm57.43-8.41.81 3.85q1.47-1.47 3.11-2.73t3.47-2.14q1.83-.88 3.92-1.38 2.09-.49 4.56-.49 3.99 0 7.07 1.35 3.09 1.35 5.16 3.8 2.06 2.44 3.13 5.84 1.07 3.4 1.07 7.48v31.02H867.5v-31.02q0-4.46-2.04-6.91-2.05-2.45-6.23-2.45-3.04 0-5.7 1.38t-5.03 3.76v35.24h-11.73v-48.73h7.17q2.28 0 2.99 2.13Zm59.66 47.36q-6.36 0-9.76-3.59-3.4-3.58-3.4-9.9v-27.22h-4.98q-.95 0-1.62-.61-.66-.62-.66-1.86v-4.65l7.83-1.29 2.47-13.3q.24-.95.91-1.47.66-.52 1.71-.52h6.08v15.34h13.01v8.36h-13.01v26.41q0 2.28 1.11 3.57 1.12 1.28 3.07 1.28 1.09 0 1.82-.26.74-.26 1.29-.55.54-.29.97-.55.43-.26.86-.26.52 0 .85.26.33.26.71.79l3.52 5.7q-2.57 2.13-5.89 3.23-3.33 1.09-6.89 1.09Zm51.49-44.22-2.66 4.23q-.47.75-1 1.06-.52.31-1.33.31-.85 0-1.83-.47-.97-.48-2.25-1.07-1.28-.59-2.92-1.07-1.64-.48-3.87-.48-3.47 0-5.44 1.48-1.97 1.47-1.97 3.84 0 1.57 1.02 2.64t2.7 1.88q1.69.81 3.83 1.45 2.14.64 4.34 1.4 2.21.76 4.35 1.73 2.14.98 3.82 2.47 1.69 1.5 2.71 3.59t1.02 5.03q0 3.52-1.26 6.49-1.25 2.96-3.72 5.13-2.47 2.16-6.11 3.37-3.63 1.21-8.38 1.21-2.52 0-4.92-.45t-4.61-1.26q-2.2-.81-4.08-1.9-1.88-1.09-3.3-2.37l2.71-4.47q.52-.81 1.23-1.24.71-.42 1.81-.42 1.09 0 2.06.62.98.61 2.26 1.33 1.28.71 3.01 1.33 1.74.61 4.4.61 2.09 0 3.58-.5 1.5-.5 2.47-1.3.98-.81 1.43-1.88.45-1.07.45-2.21 0-1.71-1.02-2.8-1.02-1.09-2.71-1.9-1.68-.81-3.85-1.45-2.16-.64-4.41-1.4-2.26-.76-4.42-1.78t-3.85-2.59q-1.68-1.57-2.71-3.85-1.02-2.28-1.02-5.51 0-2.99 1.19-5.7t3.49-4.72q2.31-2.02 5.75-3.23t7.96-1.21q5.03 0 9.16 1.66 4.14 1.66 6.89 4.37Z"/></svg>