<svg xmlns="http://www.w3.org/2000/svg" width="1200" height="1200" viewBox="0 0 1200 1200"><rect width="100%" height="100%" fill="#DDDDDD"/><path fill="#999999" d="M269.87 598.175h13.36q6.04 0 10.53-1.51 4.49-1.51 7.4-4.18 2.9-2.66 4.33-6.32 1.43-3.65 1.43-8.03 0-8.74-5.76-13.43-5.77-4.69-17.61-4.69h-13.68v38.16Zm39.59 17.81 28.78 42.45h-19.32q-5.48 0-7.95-4.29l-24.16-36.81q-1.36-2.07-2.99-2.94-1.63-.88-4.81-.88h-9.14v44.92h-21.38v-114.96h35.06q11.68 0 20.07 2.43 8.39 2.42 13.75 6.8 5.37 4.37 7.91 10.45 2.55 6.08 2.55 13.39 0 5.81-1.71 10.98-1.71 5.16-4.93 9.38-3.22 4.21-7.95 7.39-4.73 3.18-10.77 5.01 2.06 1.19 3.81 2.82t3.18 3.86Zm53.67-7.71h37.04q0-3.82-1.07-7.2-1.07-3.38-3.22-5.92-2.15-2.55-5.45-4.02-3.3-1.47-7.67-1.47-8.5 0-13.39 4.85-4.89 4.85-6.24 13.76Zm50.08 11.84h-50.48q.47 6.28 2.22 10.85 1.75 4.57 4.61 7.56 2.87 2.98 6.8 4.45 3.94 1.47 8.71 1.47 4.77 0 8.23-1.12 3.45-1.11 6.04-2.46 2.58-1.35 4.53-2.46 1.95-1.12 3.78-1.12 2.46 0 3.65 1.83l5.65 7.16q-3.26 3.81-7.32 6.4-4.05 2.58-8.46 4.13-4.42 1.55-8.99 2.19-4.57.63-8.86.63-8.51 0-15.82-2.82-7.32-2.82-12.72-8.35-5.41-5.52-8.51-13.67-3.1-8.15-3.1-18.88 0-8.35 2.7-15.7 2.71-7.36 7.76-12.8 5.04-5.45 12.32-8.63 7.27-3.18 16.41-3.18 7.72 0 14.23 2.47 6.52 2.46 11.21 7.19 4.69 4.73 7.36 11.61 2.66 6.87 2.66 15.7 0 4.45-.95 6-.96 1.55-3.66 1.55Zm70.52 14.15v-36.57q-3.34-4.05-7.28-5.72-3.93-1.67-8.46-1.67-4.46 0-8.03 1.67-3.58 1.67-6.13 5.05-2.54 3.37-3.89 8.58t-1.35 12.28q0 7.16 1.15 12.13 1.15 4.97 3.3 8.11 2.15 3.14 5.25 4.53 3.1 1.39 6.91 1.39 6.13 0 10.42-2.54 4.29-2.55 8.11-7.24Zm0-93.97h19.63v118.14h-12q-3.9 0-4.93-3.58l-1.67-7.87q-4.93 5.65-11.33 9.14-6.4 3.5-14.9 3.5-6.68 0-12.25-2.78-5.56-2.78-9.58-8.07-4.01-5.29-6.2-13.08-2.18-7.79-2.18-17.81 0-9.06 2.46-16.85 2.46-7.79 7.08-13.51 4.61-5.73 11.05-8.95 6.44-3.22 14.47-3.22 6.83 0 11.68 2.15t8.67 5.8v-43.01Zm182.85 60.66q0 12.64-4.22 23.22-4.21 10.57-11.84 18.2-7.63 7.63-18.37 11.85-10.73 4.21-23.85 4.21h-43.8v-114.96h43.8q13.12 0 23.85 4.26 10.74 4.25 18.37 11.84 7.63 7.59 11.84 18.17 4.22 10.57 4.22 23.21Zm-21.94 0q0-9.46-2.51-16.97-2.5-7.51-7.23-12.72-4.73-5.21-11.45-7.99-6.72-2.78-15.15-2.78h-22.34v80.93h22.34q8.43 0 15.15-2.79 6.72-2.78 11.45-7.99 4.73-5.2 7.23-12.72 2.51-7.51 2.51-16.97Zm55.01-19.16 1.19 9.22q3.82-7.31 9.06-11.48 5.25-4.18 12.41-4.18 5.64 0 9.06 2.47l-1.27 14.7q-.4 1.44-1.16 2.03-.75.6-2.02.6-1.19 0-3.54-.4t-4.57-.4q-3.26 0-5.8.96-2.55.95-4.58 2.74-2.02 1.79-3.57 4.33-1.55 2.55-2.91 5.81v50.24h-19.63v-81.57h11.53q3.02 0 4.21 1.08 1.19 1.07 1.59 3.85Zm57.48 26.48h37.04q0-3.82-1.07-7.2-1.07-3.38-3.22-5.92-2.15-2.55-5.44-4.02-3.3-1.47-7.68-1.47-8.5 0-13.39 4.85-4.89 4.85-6.24 13.76Zm50.08 11.84h-50.48q.48 6.28 2.23 10.85 1.74 4.57 4.61 7.56 2.86 2.98 6.79 4.45 3.94 1.47 8.71 1.47 4.77 0 8.23-1.12 3.46-1.11 6.04-2.46 2.58-1.35 4.53-2.46 1.95-1.12 3.78-1.12 2.46 0 3.65 1.83l5.65 7.16q-3.26 3.81-7.31 6.4-4.06 2.58-8.47 4.13-4.41 1.55-8.99 2.19-4.57.63-8.86.63-8.51 0-15.82-2.82-7.31-2.82-12.72-8.35-5.41-5.52-8.51-13.67-3.1-8.15-3.1-18.88 0-8.35 2.71-15.7 2.7-7.36 7.75-12.8 5.05-5.45 12.32-8.63 7.27-3.18 16.42-3.18 7.71 0 14.23 2.47 6.52 2.46 11.21 7.19 4.69 4.73 7.35 11.61 2.66 6.87 2.66 15.7 0 4.45-.95 6-.95 1.55-3.66 1.55Zm73.54-34.42-4.45 7.07q-.8 1.28-1.67 1.79-.88.52-2.23.52-1.43 0-3.06-.8-1.63-.79-3.77-1.79-2.15-.99-4.89-1.78-2.75-.8-6.48-.8-5.81 0-9.11 2.47-3.29 2.46-3.29 6.43 0 2.63 1.7 4.42 1.71 1.79 4.54 3.14 2.82 1.35 6.4 2.42 3.57 1.08 7.27 2.35 3.7 1.27 7.27 2.9 3.58 1.63 6.4 4.13 2.83 2.51 4.54 6.01 1.7 3.49 1.7 8.42 0 5.89-2.1 10.85-2.11 4.97-6.24 8.59-4.14 3.62-10.22 5.64-6.08 2.03-14.03 2.03-4.21 0-8.23-.75-4.01-.76-7.71-2.11-3.7-1.35-6.84-3.18-3.14-1.83-5.52-3.98l4.53-7.47q.87-1.35 2.07-2.07 1.19-.71 3.02-.71t3.46 1.03q1.63 1.04 3.77 2.23 2.15 1.19 5.05 2.22 2.9 1.04 7.35 1.04 3.5 0 6.01-.84 2.5-.83 4.13-2.18t2.38-3.14q.76-1.79.76-3.7 0-2.86-1.71-4.69-1.71-1.83-4.53-3.18-2.82-1.35-6.44-2.42-3.62-1.08-7.39-2.35-3.78-1.27-7.4-2.98-3.61-1.71-6.44-4.33-2.82-2.63-4.53-6.44-1.71-3.82-1.71-9.23 0-5 1.99-9.54 1.99-4.53 5.84-7.91 3.86-3.37 9.62-5.4 5.77-2.03 13.32-2.03 8.43 0 15.34 2.78 6.92 2.79 11.53 7.32Zm69.88 0-4.45 7.07q-.8 1.28-1.67 1.79-.88.52-2.23.52-1.43 0-3.06-.8-1.63-.79-3.77-1.79-2.15-.99-4.89-1.78-2.75-.8-6.48-.8-5.81 0-9.11 2.47-3.29 2.46-3.29 6.43 0 2.63 1.7 4.42 1.71 1.79 4.54 3.14 2.82 1.35 6.4 2.42 3.57 1.08 7.27 2.35 3.7 1.27 7.27 2.9 3.58 1.63 6.4 4.13 2.83 2.51 4.54 6.01 1.71 3.49 1.71 8.42 0 5.89-2.11 10.85-2.11 4.97-6.24 8.59-4.14 3.62-10.22 5.64-6.08 2.03-14.03 2.03-4.21 0-8.23-.75-4.01-.76-7.71-2.11-3.7-1.35-6.84-3.18-3.14-1.83-5.52-3.98l4.53-7.47q.87-1.35 2.07-2.07 1.19-.71 3.02-.71t3.46 1.03q1.63 1.04 3.77 2.23 2.15 1.19 5.05 2.22 2.9 1.04 7.35 1.04 3.5 0 6.01-.84 2.5-.83 4.13-2.18t2.39-3.14q.75-1.79.75-3.7 0-2.86-1.71-4.69-1.71-1.83-4.53-3.18-2.82-1.35-6.44-2.42-3.62-1.08-7.39-2.35-3.78-1.27-7.4-2.98-3.61-1.71-6.44-4.33-2.82-2.63-4.53-6.44-1.71-3.82-1.71-9.23 0-5 1.99-9.54 1.99-4.53 5.84-7.91 3.86-3.37 9.62-5.4 5.77-2.03 13.32-2.03 8.43 0 15.34 2.78 6.92 2.79 11.53 7.32Z"/></svg>