<svg xmlns="http://www.w3.org/2000/svg" width="1200" height="1200" viewBox="0 0 1200 1200"><rect width="100%" height="100%" fill="#DDDDDD"/><path fill="#999999" d="M334.49 563.385h10.87l-23.13 74.47h-12.51l-16.27-50.88q-.67-1.86-1.24-4.53-.31 1.28-.62 2.42-.31 1.13-.67 2.11l-16.43 50.88h-12.56l-23.07-74.47h11.58q1.81 0 3.02.85t1.62 2.29l12.67 44.55q.41 1.65.8 3.58.38 1.93.79 4.04.42-2.16.91-4.07.48-1.9 1.05-3.55l14.63-44.55q.41-1.18 1.62-2.16 1.21-.98 2.96-.98h4.07q1.8 0 2.93.88 1.14.87 1.7 2.26l14.58 44.55q1.08 3.19 1.96 7.36.67-4.06 1.49-7.36l12.67-44.55q.31-1.29 1.57-2.21 1.26-.93 3.01-.93Zm30.75-2.06v29.36q3.09-2.89 6.8-4.69 3.7-1.8 8.7-1.8 4.32 0 7.67 1.46 3.35 1.47 5.59 4.12 2.24 2.66 3.4 6.34 1.16 3.68 1.16 8.11v33.63h-12.72v-33.63q0-4.84-2.22-7.49-2.21-2.66-6.74-2.66-3.3 0-6.18 1.5-2.89 1.49-5.46 4.07v38.21h-12.72v-76.53h12.72Zm45.78 23.69h12.77v52.84h-12.77v-52.84Zm14.52-15.4q0 1.65-.67 3.09t-1.77 2.53q-1.11 1.08-2.6 1.72-1.5.64-3.2.64-1.64 0-3.11-.64t-2.55-1.72q-1.08-1.09-1.73-2.53-.64-1.44-.64-3.09 0-1.7.64-3.19.65-1.49 1.73-2.58 1.08-1.08 2.55-1.72 1.47-.64 3.11-.64 1.7 0 3.2.64 1.49.64 2.6 1.72 1.1 1.09 1.77 2.58.67 1.49.67 3.19Zm28.84 69.06q-6.9 0-10.58-3.88-3.68-3.89-3.68-10.74v-29.51h-5.41q-1.03 0-1.75-.67t-.72-2.01v-5.05l8.5-1.39 2.67-14.42q.26-1.03.98-1.59.72-.57 1.86-.57h6.59v16.63h14.11v9.07h-14.11v28.63q0 2.47 1.21 3.86 1.21 1.4 3.32 1.4 1.19 0 1.98-.29.8-.28 1.39-.59.6-.31 1.06-.59.46-.29.93-.29.56 0 .92.29.36.28.78.85l3.81 6.18q-2.78 2.31-6.39 3.5-3.6 1.18-7.47 1.18Zm30.75-33.32h24q0-2.47-.7-4.66-.69-2.19-2.08-3.83-1.39-1.65-3.53-2.6-2.14-.96-4.97-.96-5.51 0-8.68 3.14-3.17 3.15-4.04 8.91Zm32.44 7.68h-32.7q.31 4.07 1.44 7.03 1.14 2.96 2.99 4.89 1.85 1.93 4.4 2.88 2.55.96 5.64.96t5.33-.73q2.24-.72 3.92-1.59 1.67-.88 2.93-1.6 1.26-.72 2.45-.72 1.6 0 2.37 1.19l3.65 4.63q-2.11 2.47-4.73 4.15-2.63 1.67-5.49 2.67-2.86 1.01-5.82 1.42-2.96.41-5.74.41-5.51 0-10.25-1.83-4.74-1.82-8.24-5.4t-5.51-8.86q-2.01-5.28-2.01-12.23 0-5.41 1.75-10.17 1.75-4.77 5.02-8.3 3.28-3.52 7.99-5.58 4.71-2.06 10.63-2.06 5 0 9.22 1.59 4.22 1.6 7.26 4.66 3.04 3.07 4.77 7.52 1.72 4.46 1.72 10.17 0 2.89-.62 3.89-.61 1.01-2.37 1.01Zm82.66-42.65-3.45 6.55q-.62 1.08-1.31 1.57-.7.49-1.73.49-1.08 0-2.34-.8-1.26-.8-3.01-1.78-1.75-.98-4.1-1.78-2.34-.79-5.53-.79-2.89 0-5.05.69-2.16.7-3.63 1.93-1.47 1.24-2.19 2.96-.72 1.73-.72 3.79 0 2.62 1.47 4.38 1.46 1.75 3.88 2.98 2.43 1.24 5.52 2.22 3.09.98 6.33 2.08 3.24 1.11 6.33 2.58t5.51 3.71q2.43 2.24 3.89 5.48 1.47 3.25 1.47 7.88 0 5.05-1.72 9.45-1.73 4.4-5.05 7.67-3.32 3.27-8.11 5.15-4.79 1.88-10.97 1.88-3.56 0-7.01-.69-3.45-.7-6.61-1.98-3.17-1.29-5.95-3.09-2.78-1.81-4.95-4.02l4.07-6.64q.52-.73 1.34-1.21.83-.49 1.75-.49 1.29 0 2.78 1.05 1.5 1.06 3.56 2.34 2.06 1.29 4.81 2.35 2.76 1.05 6.62 1.05 5.92 0 9.17-2.8 3.24-2.81 3.24-8.06 0-2.94-1.47-4.79-1.46-1.86-3.88-3.12-2.43-1.26-5.52-2.14-3.09-.87-6.28-1.9-3.19-1.03-6.28-2.47-3.09-1.44-5.51-3.76t-3.89-5.8q-1.47-3.47-1.47-8.57 0-4.07 1.62-7.93 1.63-3.86 4.72-6.85 3.09-2.99 7.62-4.79 4.53-1.8 10.4-1.8 6.59 0 12.16 2.06 5.56 2.06 9.47 5.76Zm22.4 16.95.88 4.17q1.6-1.6 3.37-2.96 1.78-1.37 3.76-2.32 1.99-.95 4.25-1.49 2.27-.54 4.95-.54 4.32 0 7.67 1.46 3.35 1.47 5.59 4.12 2.24 2.66 3.4 6.34 1.15 3.68 1.15 8.11v33.63h-12.72v-33.63q0-4.84-2.21-7.49-2.22-2.66-6.75-2.66-3.29 0-6.18 1.5-2.88 1.49-5.46 4.07v38.21h-12.72v-52.84h7.78q2.47 0 3.24 2.32Zm57.12 18.02h24q0-2.47-.7-4.66-.69-2.19-2.08-3.83-1.39-1.65-3.53-2.6-2.14-.96-4.97-.96-5.51 0-8.68 3.14-3.17 3.15-4.04 8.91Zm32.44 7.68h-32.7q.31 4.07 1.44 7.03 1.14 2.96 2.99 4.89 1.85 1.93 4.4 2.88 2.55.96 5.64.96t5.33-.73q2.24-.72 3.92-1.59 1.67-.88 2.93-1.6 1.26-.72 2.45-.72 1.59 0 2.37 1.19l3.65 4.63q-2.11 2.47-4.73 4.15-2.63 1.67-5.49 2.67-2.86 1.01-5.82 1.42-2.96.41-5.74.41-5.51 0-10.25-1.83-4.74-1.82-8.24-5.4t-5.51-8.86q-2.01-5.28-2.01-12.23 0-5.41 1.75-10.17 1.75-4.77 5.02-8.3 3.27-3.52 7.99-5.58 4.71-2.06 10.63-2.06 5 0 9.22 1.59 4.22 1.6 7.26 4.66 3.04 3.07 4.76 7.52 1.73 4.46 1.73 10.17 0 2.89-.62 3.89-.62 1.01-2.37 1.01Zm40.43 11.17v-8.91q-5.51.26-9.27.96-3.76.69-6.03 1.77-2.26 1.08-3.24 2.53-.98 1.44-.98 3.14 0 3.34 1.98 4.79 1.99 1.44 5.18 1.44 3.91 0 6.77-1.42 2.86-1.41 5.59-4.3Zm-26.88-27.76-2.27-4.06q9.12-8.35 21.94-8.35 4.64 0 8.29 1.52 3.66 1.52 6.18 4.22 2.53 2.71 3.84 6.47t1.31 8.24v33.37h-5.77q-1.8 0-2.78-.54-.98-.54-1.54-2.19l-1.14-3.81q-2 1.8-3.91 3.17-1.9 1.36-3.96 2.29-2.06.93-4.41 1.41-2.34.49-5.17.49-3.35 0-6.18-.9-2.84-.9-4.9-2.7-2.06-1.8-3.19-4.48-1.13-2.68-1.13-6.23 0-2.01.67-3.99.67-1.99 2.19-3.79t3.94-3.4q2.42-1.6 5.94-2.78 3.53-1.18 8.22-1.93 4.68-.75 10.71-.9v-3.09q0-5.31-2.27-7.86-2.26-2.55-6.54-2.55-3.09 0-5.12.73-2.03.72-3.58 1.62-1.54.9-2.81 1.62-1.26.72-2.8.72-1.34 0-2.27-.69-.93-.7-1.49-1.63Zm51.24-35.12h12.72v43.83h2.37q1.29 0 2.03-.34.75-.33 1.52-1.36l13.14-16.22q.82-1.09 1.82-1.65 1.01-.57 2.6-.57h11.64l-16.43 19.62q-1.75 2.32-3.81 3.56 1.09.77 1.93 1.8.85 1.03 1.63 2.21l17.61 25.65h-11.48q-1.5 0-2.58-.49t-1.8-1.78l-13.49-20.03q-.73-1.18-1.5-1.54-.77-.37-2.32-.37h-2.88v24.21h-12.72v-76.53Zm65.1 44.03h23.99q0-2.47-.69-4.66-.7-2.19-2.09-3.83-1.39-1.65-3.52-2.6-2.14-.96-4.97-.96-5.51 0-8.68 3.14-3.17 3.15-4.04 8.91Zm32.44 7.68h-32.7q.31 4.07 1.44 7.03t2.99 4.89q1.85 1.93 4.4 2.88 2.55.96 5.64.96t5.33-.73q2.24-.72 3.91-1.59 1.68-.88 2.94-1.6 1.26-.72 2.45-.72 1.59 0 2.36 1.19l3.66 4.63q-2.11 2.47-4.74 4.15-2.62 1.67-5.48 2.67-2.86 1.01-5.82 1.42-2.96.41-5.74.41-5.51 0-10.25-1.83-4.74-1.82-8.24-5.4t-5.51-8.86q-2.01-5.28-2.01-12.23 0-5.41 1.75-10.17 1.75-4.77 5.02-8.3 3.27-3.52 7.98-5.58 4.72-2.06 10.64-2.06 4.99 0 9.22 1.59 4.22 1.6 7.26 4.66 3.04 3.07 4.76 7.52 1.73 4.46 1.73 10.17 0 2.89-.62 3.89-.62 1.01-2.37 1.01Zm23.74-24.83.77 5.98q2.48-4.74 5.88-7.44 3.39-2.71 8.03-2.71 3.66 0 5.87 1.6l-.82 9.53q-.26.92-.75 1.31t-1.31.39q-.78 0-2.3-.26-1.51-.26-2.96-.26-2.11 0-3.76.62-1.64.62-2.96 1.78-1.31 1.15-2.31 2.8-1.01 1.65-1.88 3.76v32.55h-12.72v-52.84h7.46q1.96 0 2.73.7.77.69 1.03 2.49Zm62.32 2.53-2.89 4.58q-.51.82-1.08 1.16-.56.33-1.44.33-.93 0-1.98-.51-1.06-.52-2.45-1.16-1.39-.64-3.17-1.16-1.77-.51-4.19-.51-3.76 0-5.9 1.59-2.14 1.6-2.14 4.17 0 1.7 1.11 2.86t2.93 2.04q1.83.87 4.15 1.57 2.32.69 4.71 1.52 2.4.82 4.72 1.88 2.31 1.05 4.14 2.68 1.83 1.62 2.94 3.88 1.1 2.27 1.1 5.46 0 3.81-1.36 7.03-1.37 3.22-4.04 5.56-2.68 2.35-6.62 3.66t-9.09 1.31q-2.73 0-5.33-.49-2.6-.48-5-1.36-2.39-.88-4.43-2.06-2.03-1.18-3.58-2.58l2.94-4.84q.57-.87 1.34-1.34.77-.46 1.96-.46 1.18 0 2.24.67 1.05.67 2.44 1.44 1.39.78 3.27 1.44 1.88.67 4.77.67 2.26 0 3.88-.54 1.63-.54 2.68-1.41 1.06-.88 1.55-2.04.49-1.16.49-2.39 0-1.86-1.11-3.04t-2.94-2.06q-1.82-.88-4.17-1.57-2.34-.7-4.79-1.52-2.44-.82-4.79-1.93-2.34-1.11-4.17-2.81t-2.93-4.17q-1.11-2.47-1.11-5.97 0-3.25 1.29-6.18 1.28-2.94 3.78-5.13t6.23-3.5q3.74-1.31 8.63-1.31 5.46 0 9.94 1.8 4.48 1.8 7.47 4.74Z"/></svg>